<svg width="177.000000" height="60.000000" viewBox="0 0 177 60" fill="none" xmlns="http://www.w3.org/2000/svg" xmlns:xlink="http://www.w3.org/1999/xlink">
	<desc>
			Created with Pixso.
	</desc>
	<defs/>
	<rect id="Rectangle 1" rx="5.000000" width="177.000000" height="60.000000" fill="#6B5AF9" fill-opacity="1.000000"/>
	<path id="Заказать звонок" d="M41.06 30.27Q40.69 29.85 40.09 29.63Q40.52 29.42 40.8 29.08Q40.87 29 40.94 28.9Q41.04 28.75 41.1 28.59Q41.24 28.25 41.24 27.85Q41.24 27.48 41.12 27.16Q40.99 26.82 40.72 26.54Q40.2 25.99 39.32 25.7Q38.44 25.4 37.4 25.4Q36 25.4 34.79 25.9Q34.62 25.97 34.45 26.05L35.15 27.85Q35.21 27.82 35.27 27.79Q35.74 27.56 36.26 27.43Q36.85 27.27 37.38 27.27Q38.03 27.27 38.43 27.5Q38.69 27.64 38.79 27.85Q38.84 27.98 38.84 28.13Q38.84 28.29 38.78 28.42Q38.71 28.55 38.58 28.65Q38.32 28.84 37.84 28.84L35.88 28.84L35.88 30.58L38.03 30.58Q38.55 30.58 38.86 30.76Q39.01 30.84 39.09 30.97Q39.18 31.11 39.18 31.31Q39.18 31.46 39.12 31.59Q39.01 31.86 38.67 32.03Q38.17 32.29 37.38 32.29Q36.78 32.29 36.14 32.14Q35.5 31.99 34.93 31.7L34.22 33.36Q34.54 33.52 34.88 33.65Q35.38 33.85 35.91 33.97Q36.79 34.17 37.64 34.17Q38.72 34.17 39.62 33.87Q40.52 33.56 41.05 32.99Q41.32 32.69 41.45 32.34Q41.58 32.01 41.58 31.63Q41.58 31.24 41.45 30.89Q41.35 30.64 41.18 30.42Q41.12 30.34 41.06 30.27ZM70.73 31.17Q70.43 30.8 69.86 30.62Q70.33 30.39 70.6 30.02Q70.75 29.81 70.81 29.57Q70.86 29.39 70.86 29.21Q70.86 28.9 70.75 28.64Q70.54 28.16 69.96 27.85Q69.06 27.36 67.68 27.36Q66.3 27.36 64.88 27.95L65.42 29.45Q66.56 29.01 67.49 29.01Q68.35 29.01 68.52 29.35Q68.55 29.43 68.55 29.53Q68.55 29.66 68.49 29.76Q68.33 30.02 67.75 30.02L66.55 30.02L66.55 31.36L67.96 31.36Q68.35 31.36 68.54 31.48Q68.61 31.52 68.65 31.58Q68.74 31.69 68.74 31.86Q68.74 31.95 68.7 32.03Q68.64 32.2 68.42 32.3Q68.1 32.46 67.56 32.46Q66.3 32.46 65.27 32.03L64.68 33.56Q65.98 34.13 67.63 34.13Q68.59 34.13 69.37 33.88Q70.14 33.63 70.59 33.16Q70.82 32.92 70.93 32.63Q71.04 32.36 71.04 32.04Q71.04 31.73 70.92 31.47Q70.85 31.31 70.73 31.17ZM102.59 31.17Q102.29 30.8 101.72 30.62Q102.19 30.39 102.46 30.02Q102.61 29.81 102.67 29.57Q102.72 29.39 102.72 29.21Q102.72 28.9 102.61 28.64Q102.4 28.16 101.82 27.85Q100.92 27.36 99.54 27.36Q98.16 27.36 96.74 27.95L97.28 29.45Q98.42 29.01 99.35 29.01Q100.21 29.01 100.38 29.35Q100.41 29.43 100.41 29.53Q100.41 29.66 100.35 29.76Q100.2 30.02 99.61 30.02L98.41 30.02L98.41 31.36L99.82 31.36Q100.21 31.36 100.4 31.48Q100.47 31.52 100.51 31.58Q100.6 31.69 100.6 31.86Q100.6 31.95 100.57 32.03Q100.5 32.2 100.28 32.3Q99.96 32.46 99.42 32.46Q98.16 32.46 97.13 32.03L96.54 33.56Q97.84 34.13 99.49 34.13Q100.45 34.13 101.23 33.88Q102 33.63 102.45 33.16Q102.68 32.92 102.79 32.63Q102.9 32.36 102.9 32.04Q102.9 31.73 102.78 31.47Q102.71 31.31 102.59 31.17ZM47.85 28.12Q47 27.38 45.38 27.38Q45.34 27.38 45.29 27.38Q44.56 27.39 43.83 27.58Q43.05 27.78 42.51 28.14L43.28 29.69Q43.62 29.42 44.1 29.27Q44.58 29.12 45.05 29.12Q45.87 29.12 46.21 29.53Q46.4 29.77 46.42 30.15L45.13 30.15Q43.65 30.15 42.94 30.66Q42.64 30.88 42.47 31.17Q42.24 31.57 42.24 32.1Q42.24 32.53 42.4 32.89Q42.45 33.01 42.52 33.12Q42.54 33.16 42.57 33.2Q42.85 33.6 43.35 33.84Q43.91 34.1 44.66 34.1Q45.74 34.1 46.28 33.57Q46.46 33.39 46.58 33.15L46.58 34L48.71 34L48.71 30.38Q48.71 29.03 48.03 28.29Q47.95 28.2 47.85 28.12ZM63.08 28.12Q62.23 27.38 60.61 27.38Q60.57 27.38 60.52 27.38Q59.79 27.39 59.05 27.58Q58.28 27.78 57.74 28.14L58.51 29.69Q58.85 29.42 59.33 29.27Q59.81 29.12 60.27 29.12Q61.1 29.12 61.43 29.53Q61.63 29.77 61.65 30.15L60.36 30.15Q58.88 30.15 58.17 30.66Q57.87 30.88 57.7 31.17Q57.47 31.57 57.47 32.1Q57.47 32.53 57.62 32.89Q57.68 33.01 57.75 33.12Q57.77 33.16 57.8 33.2Q58.07 33.6 58.58 33.84Q59.13 34.1 59.89 34.1Q60.97 34.1 61.51 33.57Q61.69 33.39 61.81 33.15L61.81 34L63.94 34L63.94 30.38Q63.94 29.03 63.26 28.29Q63.18 28.2 63.08 28.12ZM77.28 28.12Q76.43 27.38 74.81 27.38Q74.76 27.38 74.72 27.38Q73.98 27.39 73.25 27.58Q72.48 27.78 71.94 28.14L72.71 29.69Q73.04 29.42 73.52 29.27Q74 29.12 74.47 29.12Q75.3 29.12 75.63 29.53Q75.83 29.77 75.85 30.15L74.55 30.15Q73.08 30.15 72.37 30.66Q72.07 30.88 71.89 31.17Q71.66 31.57 71.66 32.1Q71.66 32.53 71.82 32.89Q71.87 33.01 71.94 33.12Q71.97 33.16 71.99 33.2Q72.27 33.6 72.78 33.84Q73.33 34.1 74.09 34.1Q75.16 34.1 75.71 33.57Q75.89 33.39 76.01 33.15L76.01 34L78.13 34L78.13 30.38Q78.13 29.03 77.46 28.29Q77.37 28.2 77.28 28.12ZM112.96 33.73Q113.76 34.1 114.73 34.1Q115.76 34.1 116.59 33.69Q116.61 33.68 116.63 33.67Q117.2 33.38 117.59 32.93Q117.78 32.72 117.93 32.47Q118.05 32.29 118.13 32.09Q118.4 31.47 118.4 30.73Q118.4 29.98 118.12 29.35Q118.04 29.17 117.93 29Q117.78 28.75 117.59 28.54Q117.2 28.1 116.63 27.81Q116.62 27.8 116.6 27.8Q115.77 27.38 114.73 27.38Q113.68 27.38 112.84 27.81Q112.32 28.08 111.94 28.48Q111.71 28.72 111.53 29Q111.4 29.22 111.3 29.46Q111.06 30.04 111.06 30.73Q111.06 31.46 111.33 32.08Q111.42 32.28 111.53 32.47Q111.69 32.73 111.89 32.95Q112.29 33.38 112.85 33.67Q112.91 33.7 112.96 33.73ZM129.33 33.73Q130.13 34.1 131.1 34.1Q132.13 34.1 132.95 33.69Q132.98 33.68 133 33.67Q133.56 33.38 133.96 32.93Q134.15 32.72 134.3 32.47Q134.41 32.29 134.5 32.09Q134.77 31.47 134.77 30.73Q134.77 29.98 134.49 29.35Q134.41 29.17 134.3 29Q134.15 28.75 133.96 28.54Q133.57 28.1 133 27.81Q132.98 27.8 132.97 27.8Q132.14 27.38 131.1 27.38Q130.05 27.38 129.21 27.81Q128.69 28.08 128.3 28.48Q128.08 28.72 127.9 29Q127.77 29.22 127.67 29.46Q127.43 30.04 127.43 30.73Q127.43 31.46 127.7 32.08Q127.78 32.28 127.9 32.47Q128.06 32.73 128.26 32.95Q128.66 33.38 129.22 33.67Q129.27 33.7 129.33 33.73ZM52.35 31.68L53.12 31.68L54.64 34L57.32 34L55 30.61L57.18 27.49L54.77 27.49L53.17 29.89L52.35 29.89L52.35 27.49L50.07 27.49L50.07 34L52.35 34L52.35 31.68ZM83.22 29.3L85.31 29.3L85.31 27.49L78.85 27.49L78.85 29.3L80.95 29.3L80.95 34L83.22 34L83.22 29.3ZM91.99 30.08Q91.31 29.52 90.01 29.51L88.46 29.51L88.46 27.49L86.19 27.49L86.19 34L89.72 34Q91.1 34.01 91.89 33.39Q92.21 33.14 92.4 32.81Q92.68 32.33 92.68 31.69Q92.68 30.94 92.32 30.44Q92.18 30.24 91.99 30.08ZM110.11 31.17Q109.83 30.78 109.26 30.59Q109.69 30.38 109.92 30.04Q109.93 30.02 109.94 30.01Q110.01 29.91 110.06 29.8Q110.18 29.52 110.18 29.18Q110.18 28.81 110.03 28.51Q109.85 28.17 109.48 27.94Q108.78 27.49 107.51 27.49L104.02 27.49L104.02 34L107.67 34Q109.01 34 109.69 33.5Q110.01 33.27 110.18 32.96Q110.38 32.6 110.38 32.12Q110.38 31.55 110.11 31.17ZM121.74 27.49L119.47 27.49L119.47 34L121.74 34L121.74 31.72L124.08 31.72L124.08 34L126.36 34L126.36 27.49L124.08 27.49L124.08 29.9L121.74 29.9L121.74 27.49ZM138.12 31.68L138.89 31.68L140.4 34L143.09 34L140.76 30.61L142.94 27.49L140.53 27.49L138.94 29.89L138.12 29.89L138.12 27.49L135.84 27.49L135.84 34L138.12 34L138.12 31.68ZM107.3 30.11L106.05 30.11L106.05 28.96L107.3 28.96Q107.83 28.96 108.01 29.21Q108.1 29.33 108.1 29.52Q108.1 29.73 108 29.86Q107.81 30.11 107.3 30.11ZM115.37 32.14Q115.09 32.29 114.73 32.29Q114.37 32.29 114.09 32.14Q113.9 32.04 113.75 31.88Q113.72 31.85 113.7 31.82Q113.36 31.42 113.36 30.73Q113.36 30.07 113.69 29.67Q113.72 29.64 113.75 29.6Q113.9 29.45 114.08 29.35Q114.36 29.2 114.73 29.2Q115.1 29.2 115.39 29.35Q115.57 29.45 115.72 29.6Q115.75 29.64 115.78 29.67Q116.1 30.07 116.1 30.73Q116.1 31.42 115.76 31.82Q115.74 31.85 115.72 31.88Q115.56 32.04 115.37 32.14ZM131.74 32.14Q131.46 32.29 131.1 32.29Q130.74 32.29 130.46 32.14Q130.27 32.04 130.12 31.88Q130.09 31.85 130.07 31.82Q129.73 31.42 129.73 30.73Q129.73 30.07 130.06 29.67Q130.09 29.64 130.12 29.6Q130.26 29.45 130.45 29.35Q130.73 29.2 131.1 29.2Q131.47 29.2 131.75 29.35Q131.94 29.45 132.08 29.6Q132.12 29.64 132.14 29.67Q132.47 30.07 132.47 30.73Q132.47 31.42 132.13 31.82Q132.11 31.85 132.08 31.88Q131.93 32.04 131.74 32.14ZM90.18 32.2Q89.97 32.44 89.5 32.44L88.46 32.42L88.46 30.9L89.5 30.9Q89.93 30.91 90.14 31.09Q90.17 31.11 90.19 31.14Q90.36 31.32 90.36 31.65Q90.36 32.01 90.18 32.2ZM108.2 32.26Q108.01 32.52 107.47 32.52L106.05 32.52L106.05 31.32L107.5 31.32Q108.01 31.32 108.2 31.57Q108.3 31.7 108.3 31.92Q108.3 32.13 108.2 32.26ZM45.91 32.52Q45.64 32.66 45.3 32.66Q44.9 32.66 44.67 32.48Q44.57 32.4 44.51 32.29Q44.45 32.16 44.45 32Q44.45 31.8 44.54 31.66Q44.75 31.34 45.44 31.34L46.42 31.34L46.42 31.91Q46.33 32.18 46.14 32.36Q46.07 32.42 45.99 32.47Q45.95 32.5 45.91 32.52ZM61.14 32.52Q60.87 32.66 60.53 32.66Q60.13 32.66 59.9 32.48Q59.8 32.4 59.74 32.29Q59.68 32.16 59.68 32Q59.68 31.8 59.77 31.66Q59.98 31.34 60.67 31.34L61.65 31.34L61.65 31.91Q61.55 32.18 61.36 32.36Q61.3 32.42 61.22 32.47Q61.18 32.5 61.14 32.52ZM75.33 32.52Q75.06 32.66 74.72 32.66Q74.33 32.66 74.1 32.48Q73.99 32.4 73.94 32.29Q73.87 32.16 73.87 32Q73.87 31.8 73.96 31.66Q74.17 31.34 74.87 31.34L75.85 31.34L75.85 31.91Q75.75 32.18 75.56 32.36Q75.49 32.42 75.42 32.47Q75.38 32.5 75.33 32.52Z" fill="#FFFFFF" fill-opacity="1.000000" fill-rule="evenodd"/>
</svg>
