<svg width="275.000000" height="60.000000" viewBox="0 0 275 60" fill="none" xmlns="http://www.w3.org/2000/svg" xmlns:xlink="http://www.w3.org/1999/xlink">
	<desc>
			Created with Pixso.
	</desc>
	<defs/>
	<rect id="Rectangle 1" rx="5.000000" width="275.000000" height="60.000000" fill="#6B5AF9" fill-opacity="1.000000"/>
	<path id="Узнать стоимость" d="M83.76 32.09L87.24 25.6L84.92 25.6L82.89 29.65L80.94 25.6L78.43 25.6L81.7 31.64Q81.47 31.98 81.2 32.13Q81.17 32.15 81.15 32.16Q80.9 32.29 80.58 32.29Q80.23 32.29 79.74 32.15L79.18 33.9Q79.97 34.21 80.66 34.21Q81.1 34.21 81.5 34.1Q81.98 33.96 82.41 33.67Q83.21 33.13 83.76 32.09ZM92.99 31.17Q92.69 30.8 92.12 30.62Q92.59 30.39 92.86 30.02Q93.01 29.81 93.07 29.57Q93.12 29.39 93.12 29.21Q93.12 28.9 93.01 28.64Q92.8 28.16 92.22 27.85Q91.32 27.36 89.94 27.36Q88.56 27.36 87.14 27.95L87.68 29.45Q88.82 29.01 89.75 29.01Q90.61 29.01 90.78 29.35Q90.81 29.43 90.81 29.53Q90.81 29.66 90.75 29.76Q90.59 30.02 90.01 30.02L88.81 30.02L88.81 31.36L90.22 31.36Q90.61 31.36 90.8 31.48Q90.87 31.52 90.91 31.58Q91 31.69 91 31.86Q91 31.95 90.96 32.03Q90.9 32.2 90.68 32.3Q90.36 32.46 89.82 32.46Q88.56 32.46 87.53 32.03L86.94 33.56Q88.24 34.13 89.89 34.13Q90.85 34.13 91.63 33.88Q92.4 33.63 92.85 33.16Q93.08 32.92 93.19 32.63Q93.3 32.36 93.3 32.04Q93.3 31.73 93.18 31.47Q93.11 31.31 92.99 31.17ZM107.96 28.12Q107.11 27.38 105.49 27.38Q105.45 27.38 105.4 27.38Q104.67 27.39 103.93 27.58Q103.16 27.78 102.62 28.14L103.39 29.69Q103.73 29.42 104.21 29.27Q104.69 29.12 105.15 29.12Q105.98 29.12 106.31 29.53Q106.51 29.77 106.53 30.15L105.24 30.15Q103.76 30.15 103.05 30.66Q102.75 30.88 102.58 31.17Q102.35 31.57 102.35 32.1Q102.35 32.53 102.5 32.89Q102.56 33.01 102.63 33.12Q102.65 33.16 102.68 33.2Q102.95 33.6 103.46 33.84Q104.01 34.1 104.77 34.1Q105.85 34.1 106.39 33.57Q106.57 33.39 106.69 33.15L106.69 34L108.82 34L108.82 30.38Q108.82 29.03 108.14 28.29Q108.06 28.2 107.96 28.12ZM129.16 33.67Q130.01 34.1 131.09 34.1Q132.19 34.1 132.99 33.63Q133.46 33.35 133.77 32.95Q134 32.67 134.14 32.32L132.37 31.41Q132.09 31.96 131.65 32.17Q131.39 32.29 131.08 32.29Q130.71 32.29 130.42 32.14Q130.22 32.04 130.06 31.88Q130.02 31.83 129.98 31.78Q129.66 31.38 129.66 30.73Q129.66 30.1 129.96 29.71Q130.01 29.66 130.06 29.6Q130.22 29.45 130.4 29.35Q130.7 29.2 131.08 29.2Q131.39 29.2 131.65 29.32Q132.09 29.52 132.37 30.07L134.14 29.17Q134 28.82 133.77 28.53Q133.46 28.13 132.99 27.86Q132.19 27.38 131.09 27.38Q130.01 27.38 129.16 27.81Q128.56 28.11 128.15 28.57Q127.97 28.77 127.83 29Q127.72 29.17 127.64 29.36Q127.36 29.98 127.36 30.73Q127.36 31.46 127.63 32.08Q127.71 32.28 127.83 32.47Q127.97 32.7 128.15 32.91Q128.56 33.37 129.16 33.67ZM142.99 33.73Q143.78 34.1 144.76 34.1Q145.78 34.1 146.61 33.69Q146.63 33.68 146.65 33.67Q147.22 33.38 147.62 32.93Q147.81 32.72 147.96 32.47Q148.07 32.29 148.15 32.09Q148.43 31.47 148.43 30.73Q148.43 29.98 148.14 29.35Q148.06 29.17 147.96 29Q147.81 28.75 147.62 28.54Q147.22 28.1 146.65 27.81Q146.64 27.8 146.63 27.8Q145.8 27.38 144.76 27.38Q143.7 27.38 142.87 27.81Q142.34 28.08 141.96 28.48Q141.73 28.72 141.56 29Q141.42 29.22 141.33 29.46Q141.09 30.04 141.09 30.73Q141.09 31.46 141.35 32.08Q141.44 32.28 141.56 32.47Q141.72 32.73 141.92 32.95Q142.31 33.38 142.87 33.67Q142.93 33.7 142.99 33.73ZM169.46 33.73Q170.26 34.1 171.23 34.1Q172.26 34.1 173.08 33.69Q173.1 33.68 173.12 33.67Q173.69 33.38 174.09 32.93Q174.28 32.72 174.43 32.47Q174.54 32.29 174.63 32.09Q174.9 31.47 174.9 30.73Q174.9 29.98 174.62 29.35Q174.54 29.17 174.43 29Q174.28 28.75 174.09 28.54Q173.69 28.1 173.12 27.81Q173.11 27.8 173.1 27.8Q172.27 27.38 171.23 27.38Q170.17 27.38 169.34 27.81Q168.81 28.08 168.43 28.48Q168.21 28.72 168.03 29Q167.89 29.22 167.8 29.46Q167.56 30.04 167.56 30.73Q167.56 31.46 167.83 32.08Q167.91 32.28 168.03 32.47Q168.19 32.73 168.39 32.95Q168.79 33.38 169.34 33.67Q169.4 33.7 169.46 33.73ZM177.3 33.67Q178.15 34.1 179.23 34.1Q180.34 34.1 181.14 33.63Q181.61 33.35 181.92 32.95Q182.14 32.67 182.28 32.32L180.52 31.41Q180.24 31.96 179.8 32.17Q179.54 32.29 179.22 32.29Q178.85 32.29 178.56 32.14Q178.37 32.04 178.21 31.88Q178.16 31.83 178.12 31.78Q177.8 31.38 177.8 30.73Q177.8 30.1 178.11 29.71Q178.15 29.66 178.21 29.6Q178.36 29.45 178.55 29.35Q178.84 29.2 179.22 29.2Q179.54 29.2 179.8 29.32Q180.24 29.52 180.52 30.07L182.28 29.17Q182.14 28.82 181.92 28.53Q181.61 28.13 181.14 27.86Q180.34 27.38 179.23 27.38Q178.15 27.38 177.3 27.81Q176.7 28.11 176.29 28.57Q176.12 28.77 175.97 29Q175.86 29.17 175.78 29.36Q175.5 29.98 175.5 30.73Q175.5 31.46 175.77 32.08Q175.86 32.28 175.97 32.47Q176.12 32.7 176.29 32.91Q176.71 33.37 177.3 33.67ZM96.68 27.49L94.41 27.49L94.41 34L96.68 34L96.68 31.72L99.02 31.72L99.02 34L101.3 34L101.3 27.49L99.02 27.49L99.02 29.9L96.68 29.9L96.68 27.49ZM113.9 29.3L115.99 29.3L115.99 27.49L109.54 27.49L109.54 29.3L111.64 29.3L111.64 34L113.9 34L113.9 29.3ZM122.67 30.08Q121.99 29.52 120.7 29.51L119.15 29.51L119.15 27.49L116.88 27.49L116.88 34L120.41 34Q121.79 34.01 122.57 33.39Q122.89 33.14 123.08 32.81Q123.36 32.33 123.36 31.69Q123.36 30.94 123.01 30.44Q122.87 30.24 122.67 30.08ZM138.83 29.3L140.92 29.3L140.92 27.49L134.46 27.49L134.46 29.3L136.56 29.3L136.56 34L138.83 34L138.83 29.3ZM151.76 27.49L149.5 27.49L149.5 34L151.61 34L154.31 30.58L154.31 34L156.59 34L156.59 27.49L154.49 27.49L151.76 30.9L151.76 27.49ZM164.44 30.58L164.44 34L166.49 34L166.48 27.49L164.33 27.49L162.34 30.89L160.52 27.49L158.12 27.49L158.12 34L160.18 34L160.18 30.53L161.8 33.42L162.77 33.42L164.44 30.58ZM186.97 29.3L189.06 29.3L189.06 27.49L182.6 27.49L182.6 29.3L184.7 29.3L184.7 34L186.97 34L186.97 29.3ZM195.74 30.08Q195.06 29.52 193.76 29.51L192.21 29.51L192.21 27.49L189.95 27.49L189.95 34L193.47 34Q194.85 34.01 195.64 33.39Q195.96 33.14 196.15 32.81Q196.43 32.33 196.43 31.69Q196.43 30.94 196.07 30.44Q195.93 30.24 195.74 30.08ZM145.4 32.14Q145.12 32.29 144.76 32.29Q144.4 32.29 144.12 32.14Q143.92 32.04 143.77 31.88Q143.75 31.85 143.73 31.82Q143.39 31.42 143.39 30.73Q143.39 30.07 143.71 29.67Q143.74 29.64 143.77 29.6Q143.92 29.45 144.1 29.35Q144.39 29.2 144.76 29.2Q145.12 29.2 145.41 29.35Q145.59 29.45 145.74 29.6Q145.77 29.64 145.8 29.67Q146.12 30.07 146.12 30.73Q146.12 31.42 145.79 31.82Q145.76 31.85 145.74 31.88Q145.59 32.04 145.4 32.14ZM171.87 32.14Q171.59 32.29 171.23 32.29Q170.87 32.29 170.59 32.14Q170.4 32.04 170.24 31.88Q170.22 31.85 170.2 31.82Q169.86 31.42 169.86 30.73Q169.86 30.07 170.18 29.67Q170.21 29.64 170.24 29.6Q170.39 29.45 170.57 29.35Q170.86 29.2 171.23 29.2Q171.6 29.2 171.88 29.35Q172.06 29.45 172.21 29.6Q172.24 29.64 172.27 29.67Q172.6 30.07 172.6 30.73Q172.6 31.42 172.26 31.82Q172.24 31.85 172.21 31.88Q172.06 32.04 171.87 32.14ZM120.87 32.2Q120.65 32.44 120.18 32.44L119.15 32.42L119.15 30.9L120.18 30.9Q120.61 30.91 120.83 31.09Q120.85 31.11 120.87 31.14Q121.04 31.32 121.04 31.65Q121.04 32.01 120.87 32.2ZM193.93 32.2Q193.72 32.44 193.25 32.44L192.21 32.42L192.21 30.9L193.25 30.9Q193.68 30.91 193.89 31.09Q193.92 31.11 193.94 31.14Q194.11 31.32 194.11 31.65Q194.11 32.01 193.93 32.2ZM106.02 32.52Q105.75 32.66 105.41 32.66Q105.01 32.66 104.78 32.48Q104.68 32.4 104.62 32.29Q104.56 32.16 104.56 32Q104.56 31.8 104.65 31.66Q104.86 31.34 105.55 31.34L106.53 31.34L106.53 31.91Q106.44 32.18 106.25 32.36Q106.18 32.42 106.1 32.47Q106.06 32.5 106.02 32.52Z" fill="#FFFFFF" fill-opacity="1.000000" fill-rule="evenodd"/>
</svg>
